<svg xmlns="http://www.w3.org/2000/svg" width="46.479" height="38.952" viewBox="0 0 46.479 38.952">
  <path id="Trazado_4" data-name="Trazado 4" d="M316.167,384.472l1.963-3.158,4.687-7.542,5.7-9.165,4.906-7.892c.8-1.286,1.632-2.556,2.4-3.867.011-.018.023-.036.034-.055h-6.313l1.934,3.143,4.646,7.55,5.648,9.178,4.863,7.9c.789,1.282,1.559,2.578,2.368,3.848.011.018.022.037.034.055a3.655,3.655,0,1,0,6.312-3.689l-1.934-3.143-4.645-7.542-5.648-9.178-4.863-7.907c-.785-1.282-1.559-2.582-2.368-3.848-.011-.018-.022-.037-.034-.055a3.7,3.7,0,0,0-6.313,0l-1.963,3.159-4.687,7.542-5.692,9.164-4.9,7.892c-.8,1.287-1.632,2.559-2.4,3.864-.011.018-.023.036-.034.055a3.692,3.692,0,0,0,1.311,5,3.732,3.732,0,0,0,5-1.311Z" transform="translate(355.846 386.286) rotate(180)" fill="#fff"/>
</svg>
