<svg xmlns="http://www.w3.org/2000/svg" width="85.822" height="39" viewBox="0 0 85.822 39">
  <g id="Componente_1_5" data-name="Componente 1 – 5" transform="translate(0)">
    <path id="Trazado_1" data-name="Trazado 1" d="M316.167,384.472l1.963-3.158,4.687-7.542,5.7-9.165,4.906-7.892c.8-1.286,1.632-2.556,2.4-3.867.011-.018.023-.036.034-.055h-6.313l1.934,3.143,4.646,7.55,5.648,9.178,4.863,7.9c.789,1.282,1.559,2.578,2.368,3.848.011.018.022.037.034.055a3.655,3.655,0,1,0,6.312-3.689l-1.934-3.143-4.645-7.542-5.648-9.178-4.863-7.907c-.785-1.282-1.559-2.582-2.368-3.848-.011-.018-.022-.037-.034-.055a3.7,3.7,0,0,0-6.313,0l-1.963,3.159-4.687,7.542-5.692,9.164-4.9,7.892c-.8,1.287-1.632,2.559-2.4,3.864-.011.018-.023.036-.034.055a3.692,3.692,0,0,0,1.311,5,3.732,3.732,0,0,0,5-1.311Z" transform="translate(-289.683 -347.289)" fill="#fff"/>
    <path id="Trazado_2" data-name="Trazado 2" d="M140.51,380.381l-1.933-3.143-4.647-7.548-5.648-9.183-4.865-7.9c-.79-1.282-1.559-2.578-2.368-3.848-.012-.018-.023-.037-.034-.055a3.656,3.656,0,0,0-6.313,3.689l1.933,3.143,4.647,7.55,5.648,9.178,4.863,7.9c.789,1.282,1.558,2.578,2.367,3.848.012.018.023.037.034.055a3.656,3.656,0,0,0,6.313-3.689Z" transform="translate(-114.201 -346.885)" fill="#fff"/>
    <path id="Trazado_3" data-name="Trazado 3" d="M717.842,349.1l-1.963,3.158-4.687,7.533-5.7,9.169-4.9,7.892c-.8,1.287-1.631,2.559-2.4,3.864-.011.018-.023.036-.034.055a3.69,3.69,0,0,0,1.311,5,3.731,3.731,0,0,0,5-1.311l1.963-3.159,4.683-7.541,5.7-9.165,4.9-7.892c.8-1.287,1.631-2.559,2.4-3.864l.035-.055a3.692,3.692,0,0,0-1.311-5,3.732,3.732,0,0,0-5,1.311Z" transform="translate(-638.82 -347.273)" fill="#fff"/>
  </g>
</svg>
